<mxfile host="app.diagrams.net" modified="2024-07-11T05:57:26.587Z" agent="Mozilla/5.0 (X11; Ubuntu; Linux x86_64; rv:128.0) Gecko/20100101 Firefox/128.0" etag="G6WjctQSP9vZGoXXUQSK" scale="1" border="0" version="24.6.4" type="device">
  <diagram name="Page-1" id="F5p9pbc7tB2g5aHlmoqs">
    <mxGraphModel dx="1364" dy="915" grid="1" gridSize="10" guides="1" tooltips="1" connect="1" arrows="1" fold="1" page="1" pageScale="1" pageWidth="850" pageHeight="1100" math="0" shadow="0">
      <root>
        <mxCell id="0" />
        <mxCell id="1" parent="0" />
        <mxCell id="PpKfus5s-THt8dw7ttCS-1" value="" style="shape=mxgraph.cisco.routers.router;sketch=0;html=1;pointerEvents=1;dashed=0;fillColor=#036897;strokeColor=#ffffff;strokeWidth=2;verticalLabelPosition=bottom;verticalAlign=top;align=center;outlineConnect=0;" parent="1" vertex="1">
          <mxGeometry x="150" y="310" width="78" height="53" as="geometry" />
        </mxCell>
        <mxCell id="PpKfus5s-THt8dw7ttCS-2" value="" style="shape=mxgraph.cisco.routers.router;sketch=0;html=1;pointerEvents=1;dashed=0;fillColor=#036897;strokeColor=#ffffff;strokeWidth=2;verticalLabelPosition=bottom;verticalAlign=top;align=center;outlineConnect=0;" parent="1" vertex="1">
          <mxGeometry x="270" y="138" width="78" height="53" as="geometry" />
        </mxCell>
        <mxCell id="PpKfus5s-THt8dw7ttCS-3" value="" style="shape=mxgraph.cisco.routers.router;sketch=0;html=1;pointerEvents=1;dashed=0;fillColor=#036897;strokeColor=#ffffff;strokeWidth=2;verticalLabelPosition=bottom;verticalAlign=top;align=center;outlineConnect=0;" parent="1" vertex="1">
          <mxGeometry x="386" y="311.5" width="78" height="53" as="geometry" />
        </mxCell>
        <mxCell id="PpKfus5s-THt8dw7ttCS-4" value="" style="shape=mxgraph.cisco.routers.router;sketch=0;html=1;pointerEvents=1;dashed=0;fillColor=#036897;strokeColor=#ffffff;strokeWidth=2;verticalLabelPosition=bottom;verticalAlign=top;align=center;outlineConnect=0;" parent="1" vertex="1">
          <mxGeometry x="630" y="310" width="78" height="53" as="geometry" />
        </mxCell>
        <mxCell id="PpKfus5s-THt8dw7ttCS-5" value="" style="shape=mxgraph.cisco.routers.router;sketch=0;html=1;pointerEvents=1;dashed=0;fillColor=#036897;strokeColor=#ffffff;strokeWidth=2;verticalLabelPosition=bottom;verticalAlign=top;align=center;outlineConnect=0;" parent="1" vertex="1">
          <mxGeometry x="510" y="138" width="78" height="53" as="geometry" />
        </mxCell>
        <mxCell id="PpKfus5s-THt8dw7ttCS-8" value="" style="endArrow=none;html=1;rounded=0;entryX=0.12;entryY=0.9;entryDx=0;entryDy=0;entryPerimeter=0;exitX=0.5;exitY=0;exitDx=0;exitDy=0;exitPerimeter=0;" parent="1" source="PpKfus5s-THt8dw7ttCS-1" target="PpKfus5s-THt8dw7ttCS-2" edge="1">
          <mxGeometry width="50" height="50" relative="1" as="geometry">
            <mxPoint x="400" y="500" as="sourcePoint" />
            <mxPoint x="450" y="450" as="targetPoint" />
          </mxGeometry>
        </mxCell>
        <mxCell id="PpKfus5s-THt8dw7ttCS-9" value="" style="endArrow=none;html=1;rounded=0;entryX=0.12;entryY=0.9;entryDx=0;entryDy=0;entryPerimeter=0;exitX=0.5;exitY=0;exitDx=0;exitDy=0;exitPerimeter=0;" parent="1" source="PpKfus5s-THt8dw7ttCS-3" edge="1">
          <mxGeometry width="50" height="50" relative="1" as="geometry">
            <mxPoint x="426" y="310" as="sourcePoint" />
            <mxPoint x="531" y="186" as="targetPoint" />
          </mxGeometry>
        </mxCell>
        <mxCell id="PpKfus5s-THt8dw7ttCS-10" value="" style="endArrow=none;html=1;rounded=0;entryX=0.88;entryY=0.9;entryDx=0;entryDy=0;entryPerimeter=0;exitX=0.5;exitY=0;exitDx=0;exitDy=0;exitPerimeter=0;" parent="1" source="PpKfus5s-THt8dw7ttCS-3" target="PpKfus5s-THt8dw7ttCS-2" edge="1">
          <mxGeometry width="50" height="50" relative="1" as="geometry">
            <mxPoint x="199" y="320" as="sourcePoint" />
            <mxPoint x="289" y="196" as="targetPoint" />
          </mxGeometry>
        </mxCell>
        <mxCell id="PpKfus5s-THt8dw7ttCS-11" value="" style="endArrow=none;html=1;rounded=0;entryX=0.88;entryY=0.9;entryDx=0;entryDy=0;entryPerimeter=0;exitX=0.5;exitY=0;exitDx=0;exitDy=0;exitPerimeter=0;" parent="1" edge="1">
          <mxGeometry width="50" height="50" relative="1" as="geometry">
            <mxPoint x="666" y="307" as="sourcePoint" />
            <mxPoint x="580" y="183" as="targetPoint" />
          </mxGeometry>
        </mxCell>
        <mxCell id="PpKfus5s-THt8dw7ttCS-13" value="" style="endArrow=none;html=1;rounded=0;exitX=0.88;exitY=0.1;exitDx=0;exitDy=0;exitPerimeter=0;entryX=0;entryY=0.5;entryDx=0;entryDy=0;entryPerimeter=0;" parent="1" source="PpKfus5s-THt8dw7ttCS-1" target="PpKfus5s-THt8dw7ttCS-5" edge="1">
          <mxGeometry width="50" height="50" relative="1" as="geometry">
            <mxPoint x="400" y="500" as="sourcePoint" />
            <mxPoint x="490" y="170" as="targetPoint" />
          </mxGeometry>
        </mxCell>
        <mxCell id="PpKfus5s-THt8dw7ttCS-14" value="" style="endArrow=none;html=1;rounded=0;exitX=0.12;exitY=0.1;exitDx=0;exitDy=0;exitPerimeter=0;entryX=1;entryY=0.5;entryDx=0;entryDy=0;entryPerimeter=0;" parent="1" source="PpKfus5s-THt8dw7ttCS-4" target="PpKfus5s-THt8dw7ttCS-2" edge="1">
          <mxGeometry width="50" height="50" relative="1" as="geometry">
            <mxPoint x="229" y="325" as="sourcePoint" />
            <mxPoint x="520" y="192" as="targetPoint" />
          </mxGeometry>
        </mxCell>
        <mxCell id="PpKfus5s-THt8dw7ttCS-15" value="&lt;div align=&quot;left&quot;&gt;Spine-1&lt;/div&gt;&lt;div&gt;ASN: 4200000001&lt;/div&gt;" style="text;html=1;align=center;verticalAlign=middle;whiteSpace=wrap;rounded=0;" parent="1" vertex="1">
          <mxGeometry x="229" y="70" width="160" height="50" as="geometry" />
        </mxCell>
        <mxCell id="PpKfus5s-THt8dw7ttCS-16" value="&lt;div align=&quot;left&quot;&gt;Spine-2&lt;/div&gt;&lt;div&gt;ASN: 4200000001&lt;/div&gt;" style="text;html=1;align=center;verticalAlign=middle;whiteSpace=wrap;rounded=0;" parent="1" vertex="1">
          <mxGeometry x="480" y="80" width="160" height="30" as="geometry" />
        </mxCell>
        <mxCell id="PpKfus5s-THt8dw7ttCS-17" value="&lt;div align=&quot;left&quot;&gt;Leaf-1&lt;br&gt;&lt;/div&gt;&lt;div&gt;ASN: 4200010001&lt;/div&gt;" style="text;html=1;align=center;verticalAlign=middle;whiteSpace=wrap;rounded=0;" parent="1" vertex="1">
          <mxGeometry x="10" y="313" width="160" height="50" as="geometry" />
        </mxCell>
        <mxCell id="PpKfus5s-THt8dw7ttCS-18" value="&lt;div align=&quot;left&quot;&gt;Leaf-2&lt;br&gt;&lt;/div&gt;&lt;div&gt;ASN: 4200010002&lt;/div&gt;" style="text;html=1;align=center;verticalAlign=middle;whiteSpace=wrap;rounded=0;" parent="1" vertex="1">
          <mxGeometry x="250" y="310" width="160" height="50" as="geometry" />
        </mxCell>
        <mxCell id="PpKfus5s-THt8dw7ttCS-19" value="&lt;div align=&quot;left&quot;&gt;Leaf-3&lt;br&gt;&lt;/div&gt;&lt;div&gt;ASN: 4200010003&lt;/div&gt;" style="text;html=1;align=center;verticalAlign=middle;whiteSpace=wrap;rounded=0;" parent="1" vertex="1">
          <mxGeometry x="490" y="310" width="160" height="50" as="geometry" />
        </mxCell>
        <mxCell id="PpKfus5s-THt8dw7ttCS-30" value="" style="endArrow=none;html=1;rounded=0;entryX=0.5;entryY=1;entryDx=0;entryDy=0;entryPerimeter=0;exitX=0.5;exitY=0;exitDx=0;exitDy=0;exitPerimeter=0;" parent="1" source="apMOpS-6TFcwCQa5K04P-1" target="PpKfus5s-THt8dw7ttCS-4" edge="1">
          <mxGeometry width="50" height="50" relative="1" as="geometry">
            <mxPoint x="669" y="478" as="sourcePoint" />
            <mxPoint x="450" y="450" as="targetPoint" />
          </mxGeometry>
        </mxCell>
        <mxCell id="PpKfus5s-THt8dw7ttCS-33" value="&lt;div align=&quot;left&quot;&gt;External-Router-1&lt;/div&gt;&lt;div align=&quot;left&quot;&gt;ASN: XXXX&lt;br&gt;&lt;/div&gt;" style="text;whiteSpace=wrap;html=1;" parent="1" vertex="1">
          <mxGeometry x="620" y="510" width="140" height="70" as="geometry" />
        </mxCell>
        <mxCell id="apMOpS-6TFcwCQa5K04P-1" value="" style="shape=mxgraph.cisco.routers.router;sketch=0;html=1;pointerEvents=1;dashed=0;fillColor=#036897;strokeColor=#ffffff;strokeWidth=2;verticalLabelPosition=bottom;verticalAlign=top;align=center;outlineConnect=0;" vertex="1" parent="1">
          <mxGeometry x="630" y="440" width="78" height="53" as="geometry" />
        </mxCell>
        <mxCell id="apMOpS-6TFcwCQa5K04P-2" value="" style="shape=mxgraph.cisco.servers.fileserver;sketch=0;html=1;pointerEvents=1;dashed=0;fillColor=#036897;strokeColor=#ffffff;strokeWidth=2;verticalLabelPosition=bottom;verticalAlign=top;align=center;outlineConnect=0;" vertex="1" parent="1">
          <mxGeometry x="167.5" y="440" width="43" height="62" as="geometry" />
        </mxCell>
        <mxCell id="apMOpS-6TFcwCQa5K04P-3" value="" style="shape=mxgraph.cisco.servers.fileserver;sketch=0;html=1;pointerEvents=1;dashed=0;fillColor=#036897;strokeColor=#ffffff;strokeWidth=2;verticalLabelPosition=bottom;verticalAlign=top;align=center;outlineConnect=0;" vertex="1" parent="1">
          <mxGeometry x="480" y="435.5" width="43" height="62" as="geometry" />
        </mxCell>
        <mxCell id="apMOpS-6TFcwCQa5K04P-4" value="" style="endArrow=none;html=1;rounded=0;entryX=0.5;entryY=1;entryDx=0;entryDy=0;entryPerimeter=0;exitX=0.5;exitY=0;exitDx=0;exitDy=0;exitPerimeter=0;" edge="1" parent="1" source="apMOpS-6TFcwCQa5K04P-2" target="PpKfus5s-THt8dw7ttCS-1">
          <mxGeometry width="50" height="50" relative="1" as="geometry">
            <mxPoint x="190" y="430" as="sourcePoint" />
            <mxPoint x="720" y="450" as="targetPoint" />
          </mxGeometry>
        </mxCell>
        <mxCell id="apMOpS-6TFcwCQa5K04P-5" value="" style="endArrow=none;html=1;rounded=0;entryX=0.5;entryY=1;entryDx=0;entryDy=0;entryPerimeter=0;exitX=0.5;exitY=0;exitDx=0;exitDy=0;exitPerimeter=0;" edge="1" parent="1" source="apMOpS-6TFcwCQa5K04P-3" target="PpKfus5s-THt8dw7ttCS-3">
          <mxGeometry width="50" height="50" relative="1" as="geometry">
            <mxPoint x="420" y="450" as="sourcePoint" />
            <mxPoint x="420" y="373" as="targetPoint" />
          </mxGeometry>
        </mxCell>
        <mxCell id="apMOpS-6TFcwCQa5K04P-6" value="&lt;div&gt;Server-1&lt;/div&gt;&lt;div&gt;Vrd-red&lt;br&gt;&lt;/div&gt;" style="text;html=1;align=center;verticalAlign=middle;whiteSpace=wrap;rounded=0;" vertex="1" parent="1">
          <mxGeometry x="159" y="520" width="60" height="30" as="geometry" />
        </mxCell>
        <mxCell id="apMOpS-6TFcwCQa5K04P-7" value="" style="endArrow=none;html=1;rounded=0;exitX=0.5;exitY=1;exitDx=0;exitDy=0;exitPerimeter=0;entryX=0.5;entryY=0;entryDx=0;entryDy=0;entryPerimeter=0;" edge="1" parent="1" source="PpKfus5s-THt8dw7ttCS-3" target="apMOpS-6TFcwCQa5K04P-10">
          <mxGeometry width="50" height="50" relative="1" as="geometry">
            <mxPoint x="512" y="446" as="sourcePoint" />
            <mxPoint x="370" y="440" as="targetPoint" />
          </mxGeometry>
        </mxCell>
        <mxCell id="apMOpS-6TFcwCQa5K04P-10" value="" style="shape=mxgraph.cisco.servers.fileserver;sketch=0;html=1;pointerEvents=1;dashed=0;fillColor=#036897;strokeColor=#ffffff;strokeWidth=2;verticalLabelPosition=bottom;verticalAlign=top;align=center;outlineConnect=0;" vertex="1" parent="1">
          <mxGeometry x="330" y="440" width="43" height="62" as="geometry" />
        </mxCell>
        <mxCell id="apMOpS-6TFcwCQa5K04P-11" value="&lt;div&gt;Server-2&lt;/div&gt;&lt;div&gt;Vrd-green&lt;br&gt;&lt;/div&gt;" style="text;html=1;align=center;verticalAlign=middle;whiteSpace=wrap;rounded=0;" vertex="1" parent="1">
          <mxGeometry x="321.5" y="520" width="60" height="30" as="geometry" />
        </mxCell>
        <mxCell id="apMOpS-6TFcwCQa5K04P-12" value="&lt;div&gt;Server-3&lt;/div&gt;&lt;div&gt;Vrd-red&lt;br&gt;&lt;/div&gt;" style="text;html=1;align=center;verticalAlign=middle;whiteSpace=wrap;rounded=0;" vertex="1" parent="1">
          <mxGeometry x="471.5" y="520" width="60" height="30" as="geometry" />
        </mxCell>
        <mxCell id="apMOpS-6TFcwCQa5K04P-13" value="" style="endArrow=classic;html=1;rounded=0;fillColor=#f8cecc;strokeColor=#b85450;" edge="1" parent="1">
          <mxGeometry width="50" height="50" relative="1" as="geometry">
            <mxPoint x="210" y="430" as="sourcePoint" />
            <mxPoint x="210" y="380" as="targetPoint" />
          </mxGeometry>
        </mxCell>
        <mxCell id="apMOpS-6TFcwCQa5K04P-15" value="" style="endArrow=classic;html=1;rounded=0;fillColor=#f8cecc;strokeColor=#b85450;" edge="1" parent="1">
          <mxGeometry width="50" height="50" relative="1" as="geometry">
            <mxPoint x="250" y="320" as="sourcePoint" />
            <mxPoint x="500" y="190" as="targetPoint" />
          </mxGeometry>
        </mxCell>
        <mxCell id="apMOpS-6TFcwCQa5K04P-16" value="" style="endArrow=classic;html=1;rounded=0;fillColor=#f8cecc;strokeColor=#b85450;" edge="1" parent="1">
          <mxGeometry width="50" height="50" relative="1" as="geometry">
            <mxPoint x="610" y="190" as="sourcePoint" />
            <mxPoint x="680" y="290" as="targetPoint" />
          </mxGeometry>
        </mxCell>
        <mxCell id="apMOpS-6TFcwCQa5K04P-17" value="" style="endArrow=classic;html=1;rounded=0;fillColor=#f8cecc;strokeColor=#b85450;" edge="1" parent="1">
          <mxGeometry width="50" height="50" relative="1" as="geometry">
            <mxPoint x="690" y="380" as="sourcePoint" />
            <mxPoint x="690" y="430" as="targetPoint" />
          </mxGeometry>
        </mxCell>
        <mxCell id="apMOpS-6TFcwCQa5K04P-20" value="" style="endArrow=none;html=1;rounded=0;fillColor=#d5e8d4;strokeColor=#82b366;endFill=0;startArrow=classic;startFill=1;" edge="1" parent="1">
          <mxGeometry width="50" height="50" relative="1" as="geometry">
            <mxPoint x="649" y="380" as="sourcePoint" />
            <mxPoint x="649" y="430" as="targetPoint" />
          </mxGeometry>
        </mxCell>
        <mxCell id="apMOpS-6TFcwCQa5K04P-21" value="" style="endArrow=none;html=1;rounded=0;fillColor=#d5e8d4;strokeColor=#82b366;endFill=0;startArrow=classic;startFill=1;" edge="1" parent="1">
          <mxGeometry width="50" height="50" relative="1" as="geometry">
            <mxPoint x="568" y="200" as="sourcePoint" />
            <mxPoint x="638" y="300" as="targetPoint" />
          </mxGeometry>
        </mxCell>
        <mxCell id="apMOpS-6TFcwCQa5K04P-22" value="" style="endArrow=none;html=1;rounded=0;fillColor=#d5e8d4;strokeColor=#82b366;endFill=0;startArrow=classic;startFill=1;" edge="1" parent="1">
          <mxGeometry width="50" height="50" relative="1" as="geometry">
            <mxPoint x="460" y="300" as="sourcePoint" />
            <mxPoint x="540" y="200" as="targetPoint" />
          </mxGeometry>
        </mxCell>
        <mxCell id="apMOpS-6TFcwCQa5K04P-23" value="" style="endArrow=none;html=1;rounded=0;fillColor=#d5e8d4;strokeColor=#82b366;endFill=0;startArrow=classic;startFill=1;" edge="1" parent="1">
          <mxGeometry width="50" height="50" relative="1" as="geometry">
            <mxPoint x="380" y="436" as="sourcePoint" />
            <mxPoint x="424" y="390" as="targetPoint" />
          </mxGeometry>
        </mxCell>
        <mxCell id="apMOpS-6TFcwCQa5K04P-24" value="Vrf-green" style="ellipse;shape=cloud;whiteSpace=wrap;html=1;fillColor=#d5e8d4;strokeColor=#82b366;" vertex="1" parent="1">
          <mxGeometry x="90.5" y="130" width="120" height="80" as="geometry" />
        </mxCell>
        <mxCell id="apMOpS-6TFcwCQa5K04P-25" value="Vrf-red" style="ellipse;shape=cloud;whiteSpace=wrap;html=1;fillColor=#f8cecc;strokeColor=#b85450;" vertex="1" parent="1">
          <mxGeometry x="41.5" y="80" width="120" height="80" as="geometry" />
        </mxCell>
      </root>
    </mxGraphModel>
  </diagram>
</mxfile>
